<svg xmlns="http://www.w3.org/2000/svg" fill="none" style="fill:#b8add2" viewBox="0 -15 122.000000 122.000000" color="textSubtle" width="20px" class="sc-4ba21b47-0 ebMyYP"><g transform="translate(0.000000,122.000000) scale(0.100000,-0.100000)" stroke="none"><path fill-rule="evenodd" clip-rule="evenodd" d="M465 1200 c-102 -27 -142 -46 -221 -105 -153 -115 -244 -293 -244 -480 0 -136 62 -311 119 -334 30 -13 96 -6 119 12 9 7 12 57 12 188 0 211 -1 209 95 209 95 0 95 1 95 -201 0 -180 2 -186 48 -153 22 15 22 19 22 234 0 257 -3 250 95 250 97 0 95 4 95 -226 0 -107 4 -194 9 -194 4 0 20 9 35 21 l26 20 0 244 c0 281 -6 265 98 265 43 0 63 -5 73 -17 10 -12 15 -65 19 -205 l5 -189 67 56 c86 71 148 148 148 185 0 82 -113 249 -218 322 -152 106 -334 142 -497 98z"></path></g></svg>